<svg xmlns="http://www.w3.org/2000/svg" width="100%" height="100px" viewBox="0 0 100 100" aria-labelledby="title">
    <title id="title">Settings Icon"</title>
    <path fill="black" d="M51.2221h-5.052c-0.8120-1.481-0.447-1.792-1.197s-0.153-1.540.42-2.114l3.572-3.571
        c0.525-0.5250.814-1.2240.814-1.966c0-0.743-0.289-1.441-0.814-1.967l-4.553-4.553c-1.05-1.05-2.881-1.052-3.9330l-3.5713.571
        c-0.5740.573-1.3660.733-2.1140.421C33.4479.313338.644337.832V2.78C331.24731.753030.220H23.78
        C22.2470211.247212.78v5.052c00.812-0.4471.481-1.1971.792c-0.7480.313-1.540.152-2.114-0.421l-3.571-3.571
        c-1.052-1.052-2.883-1.05-3.9330l-4.5534.553c-0.5250.525-0.8141.224-0.8141.967c00.7420.2891.440.8141.966l3.5723.571
        c0.5730.5740.731.3640.422.114S8.644217.83221H2.78C1.24721022.247023.78v6.439C031.7531.247332.7833h5.052
        c0.81201.4810.4471.7921.197s0.1531.54-0.422.114l-3.5723.571c-0.5250.525-0.8141.224-0.8141.966
        c00.7430.2891.4410.8141.967l4.5534.553c1.0511.0512.8811.0533.9330l3.571-3.572c0.574-0.5731.363-0.7312.114-0.42
        c0.750.3111.1970.981.1971.792v5.052c01.5331.2472.782.782.78h6.439c1.53302.78-1.2472.78-2.78v-5.052
        c0-0.8120.447-1.4811.197-1.792c0.751-0.3121.54-0.1532.1140.42l3.5713.572c1.0521.0522.8831.053.9330l4.553-4.553
        c0.525-0.5250.814-1.2240.814-1.967c0-0.742-0.289-1.44-0.814-1.966l-3.572-3.571c-0.573-0.574-0.73-1.364-0.42-2.114
        S45.3563346.16833h5.052c1.53302.78-1.2472.78-2.78V23.78C5422.24752.7532151.2221z M5230.22
        C5230.6551.653151.2231h-5.052c-1.6240-3.0190.932-3.642.432c-0.6221.5-0.2953.1460.8544.294l3.5723.571
        c0.3050.3050.3050.801.104l-4.5534.553c-0.3040.304-0.7990.306-1.1040l-3.571-3.572c-1.149-1.149-2.794-1.474-4.294-0.854
        c-1.50.621-2.4322.016-2.4323.64v5.052C3151.6530.655230.2252H23.78C23.35522351.652351.22v-5.052
        c0-1.624-0.932-3.019-2.432-3.64c-0.503-0.209-1.021-0.311-1.533-0.311c-1.0140-1.9970.4-2.7611.164l-3.5713.572
        c-0.3060.306-0.8010.304-1.1040l-4.553-4.553c-0.305-0.305-0.305-0.80-1.104l3.572-3.571c1.148-1.1481.476-2.7940.854-4.294
        C10.85131.9329.456317.83231H2.78C2.3531230.65230.22V23.78C223.352.35232.7823h5.052
        c1.62403.019-0.9323.64-2.432c0.622-1.50.295-3.146-0.854-4.294l-3.572-3.571c-0.305-0.305-0.305-0.80-1.104l4.553-4.553
        c0.304-0.3050.799-0.3051.1040l3.5713.571c1.1471.1472.7921.4764.2940.854C22.06810.851239.456237.832V2.78
        C232.3523.35223.782h6.439C30.652312.35312.78v5.052c01.6240.9323.0192.4323.64
        c1.5020.6223.1460.2944.294-0.854l3.571-3.571c0.306-0.3050.801-0.3051.1040l4.5534.553c0.3050.3050.3050.801.104
        l-3.5723.571c-1.1481.148-1.4762.794-0.8544.294c0.6211.52.0162.4323.642.432h5.052C51.65235223.355223.78V30.22z" />
    <path fill="black" d="M2718c-4.9630-94.037-99s4.037999s9-4.0379-9S31.963182718z M2734c-3.8590-7-3.141-7-7s3.141-77-7
        s73.14177S30.859342734z" />
</svg>